<?xml version="1.0" encoding="utf-8"?>
<!-- Generator: Adobe Illustrator 24.0.3, SVG Export Plug-In . SVG Version: 6.00 Build 0)  -->
<svg version="1.1" xmlns="http://www.w3.org/2000/svg" xmlns:xlink="http://www.w3.org/1999/xlink" x="0px" y="0px"
	 viewBox="0 0 199.7 128.6" width="180.13" height="116">
<style type="text/css">
	.st0{fill:#FFFFFF;}
	.st1{fill:#221F20;}
</style>
<path class="st0" d="M99.2,61.4h98.1v1.3H99.2L99.2,61.4z"/>
<g>
	<path class="st0" d="M101.3,36.3v-8.6h3c0.9,0,1.4,0.2,2,0.7c0.5,0.4,0.8,1,0.8,1.6c0,0.4-0.1,0.8-0.3,1c-0.2,0.3-0.5,0.6-0.9,0.7
		c0.6,0.2,1,0.4,1.2,0.8c0.3,0.4,0.4,0.8,0.4,1.3c0,0.8-0.3,1.3-0.8,1.7c-0.5,0.5-1.2,0.7-2.1,0.7L101.3,36.3L101.3,36.3z
		 M102.8,28.8v2.6h1.2c0.9,0,1.3-0.4,1.3-1.2c0-0.9-0.4-1.2-1.2-1.2L102.8,28.8L102.8,28.8z M102.8,32.5v2.7h1.7
		c1,0,1.4-0.5,1.4-1.3c0-1-0.5-1.3-1.4-1.3H102.8z"/>
	<path class="st0" d="M111.3,36.2c-0.3,0.1-0.7,0.2-1,0.2c-0.5,0-0.9-0.1-1.1-0.4c-0.3-0.3-0.4-0.7-0.4-1.2v-7.6h1.4v7.5
		c0,0.2,0,0.4,0.1,0.5c0.1,0.1,0.2,0.1,0.4,0.1c0.2,0,0.3,0,0.5,0L111.3,36.2L111.3,36.2z"/>
	<path class="st0" d="M115.3,36.5c-1,0-1.7-0.3-2.3-0.9c-0.6-0.6-0.8-1.4-0.8-2.5s0.3-1.9,0.8-2.5c0.6-0.6,1.2-0.9,2.3-0.9
		s1.7,0.3,2.3,0.9s0.8,1.4,0.8,2.5s-0.3,1.9-0.8,2.5C117,36.2,116.2,36.5,115.3,36.5z M115.3,35.3c1,0,1.5-0.8,1.5-2.2
		c0-1.4-0.5-2.2-1.5-2.2s-1.5,0.8-1.5,2.2C113.8,34.6,114.2,35.3,115.3,35.3z"/>
	<path class="st0" d="M122.5,36.5c-1,0-1.7-0.3-2.3-0.9s-0.8-1.4-0.8-2.5s0.3-1.9,0.8-2.5c0.6-0.6,1.2-0.9,2.3-0.9
		c1,0,1.7,0.3,2.3,0.9c0.6,0.6,0.8,1.4,0.8,2.5s-0.3,1.9-0.8,2.5C124.2,36.2,123.5,36.5,122.5,36.5z M122.5,35.3
		c1,0,1.5-0.8,1.5-2.2c0-1.4-0.5-2.2-1.5-2.2c-1,0-1.5,0.8-1.5,2.2C121,34.6,121.5,35.3,122.5,35.3z"/>
	<path class="st0" d="M131.4,36.3l-0.2-0.6c-0.6,0.5-1.2,0.8-1.9,0.8c-0.8,0-1.4-0.3-1.9-0.9s-0.7-1.4-0.7-2.4
		c0-0.7,0.1-1.2,0.3-1.7c0.2-0.5,0.6-0.9,1-1.1c0.4-0.3,0.9-0.4,1.4-0.4c0.7,0,1.2,0.2,1.8,0.7v-3.5h1.4v9.1H131.4z M129.8,35.3
		c0.5,0,1-0.2,1.4-0.5v-3.4c-0.4-0.3-0.9-0.5-1.4-0.5c-0.6,0-1,0.2-1.2,0.6c-0.3,0.4-0.4,0.9-0.4,1.6
		C128.2,34.5,128.7,35.3,129.8,35.3z"/>
	<path class="st0" d="M103.5,52.5l-3.1-8.6h1.5l2.4,7.1l2.4-7.1h1.5l-3.1,8.6H103.5z"/>
	<path class="st0" d="M110,45.1c-0.3,0-0.5-0.1-0.7-0.2c-0.2-0.2-0.2-0.4-0.2-0.6c0-0.2,0.1-0.5,0.2-0.7c0.2-0.2,0.4-0.2,0.7-0.2
		c0.3,0,0.5,0.1,0.7,0.2c0.2,0.2,0.2,0.4,0.2,0.7c0,0.3-0.1,0.5-0.2,0.6C110.5,45.1,110.2,45.1,110,45.1z M109.3,52.5v-6.3h1.4v6.3
		H109.3z"/>
	<path class="st0" d="M115.3,52.7c-1,0-1.7-0.3-2.3-0.9c-0.6-0.6-0.8-1.4-0.8-2.5c0-1,0.3-1.9,0.8-2.5c0.6-0.6,1.2-0.9,2.3-0.9
		s1.7,0.3,2.3,0.9s0.8,1.4,0.8,2.5c0,1-0.3,1.9-0.8,2.5C117,52.4,116.2,52.7,115.3,52.7z M115.3,51.5c1,0,1.5-0.8,1.5-2.2
		c0-1.4-0.5-2.2-1.5-2.2s-1.5,0.8-1.5,2.2C113.8,50.8,114.2,51.5,115.3,51.5z"/>
	<path class="st0" d="M122.2,52.4c-0.3,0.1-0.7,0.2-1,0.2c-0.5,0-0.9-0.1-1.1-0.4c-0.3-0.3-0.4-0.7-0.4-1.2v-7.6h1.4v7.5
		c0,0.2,0,0.4,0.1,0.5c0.1,0.1,0.2,0.1,0.4,0.1s0.3,0,0.5,0L122.2,52.4L122.2,52.4z"/>
	<path class="st0" d="M124.7,49.7c0,0.7,0.2,1,0.5,1.4c0.3,0.3,0.8,0.5,1.4,0.5c0.6,0,1.2-0.1,1.9-0.4v1c-0.3,0.2-0.6,0.3-1,0.4
		c-0.4,0.1-0.8,0.1-1.2,0.1c-1,0-1.8-0.3-2.4-0.9c-0.6-0.6-0.8-1.3-0.8-2.5c0-1,0.3-1.9,0.8-2.5c0.5-0.6,1.2-0.9,2.2-0.9
		c0.8,0,1.4,0.2,1.9,0.7c0.5,0.5,0.7,1,0.7,1.9c0,0.5,0,0.9-0.1,1.1L124.7,49.7L124.7,49.7z M126.2,47.1c-0.4,0-0.8,0.2-1,0.5
		c-0.3,0.3-0.4,0.7-0.5,1.2h2.7v-0.1c0-0.5-0.1-0.9-0.3-1.1C126.8,47.3,126.5,47.1,126.2,47.1z"/>
	<path class="st0" d="M134.3,52.5v-4.2c0-0.4-0.1-0.7-0.3-0.9s-0.5-0.3-0.8-0.3c-0.6,0-1.1,0.2-1.7,0.6v4.8h-1.4v-6.3h1.2l0.2,0.7
		c0.8-0.6,1.6-0.9,2.4-0.9c0.6,0,1,0.2,1.3,0.5c0.3,0.3,0.5,0.8,0.5,1.3v4.7C135.8,52.5,134.3,52.5,134.3,52.5z"/>
	<path class="st0" d="M142,52.3c-0.5,0.3-1,0.4-1.7,0.4c-1,0-1.7-0.3-2.2-0.9c-0.5-0.6-0.8-1.3-0.8-2.4c0-1,0.3-1.9,0.8-2.5
		c0.6-0.6,1.3-0.9,2.3-0.9c0.6,0,1.1,0.1,1.6,0.4v1c-0.6-0.2-1-0.2-1.4-0.2c-0.6,0-1,0.2-1.3,0.5c-0.3,0.4-0.5,0.9-0.5,1.5v0.2
		c0,0.7,0.2,1.2,0.5,1.5c0.3,0.3,0.8,0.5,1.3,0.5c0.5,0,1-0.1,1.4-0.3L142,52.3L142,52.3z"/>
	<path class="st0" d="M144.3,49.7c0,0.7,0.2,1,0.5,1.4c0.3,0.3,0.8,0.5,1.4,0.5c0.6,0,1.2-0.1,1.9-0.4v1c-0.3,0.2-0.6,0.3-1,0.4
		c-0.4,0.1-0.8,0.1-1.2,0.1c-1,0-1.8-0.3-2.4-0.9c-0.6-0.6-0.8-1.3-0.8-2.5c0-1,0.3-1.9,0.8-2.5c0.5-0.6,1.2-0.9,2.2-0.9
		c0.8,0,1.4,0.2,1.9,0.7c0.5,0.5,0.7,1,0.7,1.9c0,0.5,0,0.9-0.1,1.1L144.3,49.7L144.3,49.7z M145.8,47.1c-0.4,0-0.8,0.2-1,0.5
		c-0.3,0.3-0.4,0.7-0.5,1.2h2.7v-0.1c0-0.5-0.1-0.9-0.3-1.1S146.2,47.1,145.8,47.1z"/>
	<path class="st0" d="M101.4,80.1v-8.6h1.5v8.6H101.4z"/>
	<path class="st0" d="M108.3,80.1v-4.2c0-0.4-0.1-0.7-0.3-0.9c-0.2-0.2-0.5-0.3-0.8-0.3c-0.6,0-1.1,0.2-1.7,0.6v4.8h-1.4v-6.3h1.2
		l0.2,0.7c0.8-0.6,1.6-0.9,2.4-0.9c0.6,0,1,0.2,1.3,0.5c0.3,0.3,0.5,0.8,0.5,1.3v4.7H108.3z"/>
	<path class="st0" d="M110.6,77.5v-1.2h3.8v1.2H110.6z"/>
	<path class="st0" d="M119.4,79c0.4,0,0.8,0,1.1-0.1v-2.3h-1.7v-1.1h3.2v4.2c-0.4,0.2-0.9,0.4-1.3,0.5s-1,0.2-1.5,0.2
		c-1.3,0-2.4-0.4-3.1-1.1c-0.8-0.8-1-1.8-1-3.2s0.4-2.6,1.1-3.3s1.8-1.1,3.2-1.1c1,0,1.8,0.2,2.5,0.5v1.2c-0.9-0.3-1.6-0.5-2.4-0.5
		c-1,0-1.7,0.3-2.2,0.8s-0.7,1.2-0.7,2.3v0.3c0,1,0.2,1.8,0.7,2.3S118.4,79,119.4,79z"/>
	<path class="st0" d="M126.8,80.1l-0.1-0.6c-0.3,0.3-0.6,0.5-1,0.6c-0.4,0.1-0.7,0.2-1,0.2c-0.6,0-1-0.2-1.4-0.5
		c-0.4-0.4-0.6-0.8-0.6-1.3c0-0.6,0.2-1.1,0.7-1.4c0.5-0.4,1-0.6,1.8-0.6c0.5,0,1,0.1,1.4,0.2v-0.8c0-0.4-0.1-0.7-0.3-0.9
		c-0.2-0.2-0.5-0.3-1-0.3c-0.7,0-1.4,0.1-2.2,0.4v-1c0.3-0.2,0.7-0.3,1.1-0.4s0.9-0.1,1.3-0.1c0.9,0,1.4,0.2,1.8,0.5
		s0.6,0.9,0.6,1.5v4.5L126.8,80.1L126.8,80.1z M125.1,79.3c0.2,0,0.5-0.1,0.8-0.2s0.5-0.3,0.8-0.5v-1.1c-0.4-0.1-0.8-0.1-1.1-0.1
		c-0.9,0-1.2,0.4-1.2,1c0,0.3,0.1,0.5,0.3,0.7C124.7,79.3,124.8,79.3,125.1,79.3z"/>
	<path class="st0" d="M137.1,80.1v-4.3c0-0.4-0.1-0.7-0.2-0.9c-0.2-0.2-0.4-0.3-0.8-0.3c-0.3,0-0.6,0-0.9,0.1
		c-0.3,0.1-0.6,0.2-0.8,0.3v4.9h-1.4v-4.3c0-0.4-0.1-0.7-0.2-0.9c-0.2-0.2-0.4-0.3-0.8-0.3c-0.3,0-0.5,0-0.8,0.1
		c-0.3,0.1-0.6,0.2-0.8,0.4v4.9h-1.4v-6h1.2l0.1,0.7c0.4-0.3,0.8-0.5,1.1-0.6c0.4-0.1,0.8-0.2,1.1-0.2c0.8,0,1.3,0.3,1.6,0.9
		c0.9-0.6,1.6-0.9,2.4-0.9c0.6,0,1,0.2,1.3,0.5c0.3,0.3,0.5,0.8,0.5,1.3v4.7L137.1,80.1L137.1,80.1z"/>
	<path class="st0" d="M140.8,77.3c0,0.7,0.2,1,0.5,1.4c0.3,0.3,0.8,0.5,1.4,0.5c0.6,0,1.2-0.1,1.9-0.4v1c-0.3,0.2-0.6,0.3-1,0.4
		c-0.4,0.1-0.8,0.1-1.2,0.1c-1,0-1.8-0.3-2.4-0.9c-0.6-0.6-0.8-1.3-0.8-2.5c0-1,0.3-1.9,0.8-2.5c0.5-0.6,1.2-0.9,2.2-0.9
		c0.8,0,1.4,0.2,1.9,0.7c0.5,0.5,0.7,1,0.7,1.9c0,0.5,0,0.9-0.1,1.1L140.8,77.3L140.8,77.3z M142.4,74.8c-0.4,0-0.8,0.2-1,0.5
		c-0.3,0.3-0.4,0.7-0.5,1.2h2.7v-0.1c0-0.5-0.1-0.9-0.3-1.1C143,74.9,142.7,74.8,142.4,74.8z"/>
	<path class="st0" d="M149.9,76.9v3.2h-1.5v-8.6h3.1c0.9,0,1.5,0.3,2,0.8c0.5,0.5,0.8,1.1,0.8,2c0,0.9-0.3,1.5-0.8,2
		c-0.5,0.5-1.1,0.8-2,0.8h-1.6V76.9z M149.9,75.7h1.5c0.5,0,0.9-0.1,1-0.4c0.2-0.3,0.4-0.7,0.4-1.1s-0.1-0.9-0.4-1.1
		c-0.3-0.3-0.6-0.4-1-0.4h-1.5V75.7z"/>
	<path class="st0" d="M159.4,80.1l-0.2-0.7c-0.8,0.6-1.5,0.9-2.3,0.9c-0.6,0-1-0.2-1.3-0.5c-0.3-0.3-0.5-0.8-0.5-1.4v-4.6h1.4V78
		c0,0.4,0.1,0.7,0.3,0.9c0.2,0.2,0.5,0.3,0.8,0.3c0.5,0,1-0.2,1.5-0.5v-4.9h1.4v6.3H159.4z"/>
	<path class="st0" d="M161.8,80.1v-6.3h1.2l0.2,1c0.3-0.4,0.7-0.7,1-0.8c0.3-0.2,0.6-0.2,1-0.2c0.2,0,0.3,0,0.5,0v1.3
		c-0.2,0-0.5-0.1-0.7-0.1c-0.6,0-1.1,0.2-1.6,0.5v4.6C163.3,80.1,161.8,80.1,161.8,80.1z"/>
	<path class="st0" d="M170.4,79.9c-0.5,0.3-1,0.4-1.7,0.4c-1,0-1.7-0.3-2.2-0.9c-0.5-0.6-0.8-1.3-0.8-2.4c0-1,0.3-1.9,0.8-2.5
		c0.6-0.6,1.3-0.9,2.3-0.9c0.6,0,1.1,0.1,1.6,0.4v1c-0.6-0.2-1-0.2-1.4-0.2c-0.6,0-1,0.2-1.3,0.5c-0.3,0.4-0.5,0.9-0.5,1.5v0.2
		c0,0.7,0.2,1.2,0.5,1.5c0.3,0.3,0.8,0.5,1.3,0.5c0.5,0,1-0.1,1.4-0.3L170.4,79.9L170.4,79.9z"/>
	<path class="st0" d="M175.2,80.1v-4.2c0-0.4-0.1-0.7-0.3-0.9c-0.2-0.2-0.5-0.3-0.8-0.3c-0.6,0-1.1,0.2-1.7,0.6v4.8H171v-9.1h1.4
		v3.5c0.8-0.6,1.5-0.8,2.3-0.8c0.6,0,1,0.2,1.3,0.5c0.3,0.3,0.5,0.8,0.5,1.3v4.7L175.2,80.1L175.2,80.1z"/>
	<path class="st0" d="M181.5,80.1l-0.1-0.6c-0.3,0.3-0.6,0.5-1,0.6s-0.7,0.2-1,0.2c-0.6,0-1-0.2-1.4-0.5c-0.4-0.4-0.6-0.8-0.6-1.3
		c0-0.6,0.2-1.1,0.7-1.4c0.5-0.4,1-0.6,1.8-0.6c0.5,0,1,0.1,1.4,0.2v-0.8c0-0.4-0.1-0.7-0.3-0.9c-0.2-0.2-0.5-0.3-1-0.3
		c-0.7,0-1.4,0.1-2.2,0.4v-1c0.3-0.2,0.7-0.3,1.1-0.4c0.5-0.1,0.9-0.1,1.3-0.1c0.9,0,1.4,0.2,1.8,0.5c0.4,0.3,0.6,0.9,0.6,1.5v4.5
		L181.5,80.1L181.5,80.1z M179.8,79.3c0.2,0,0.5-0.1,0.8-0.2c0.3-0.1,0.5-0.3,0.8-0.5v-1.1c-0.4-0.1-0.8-0.1-1.1-0.1
		c-0.9,0-1.2,0.4-1.2,1c0,0.3,0.1,0.5,0.3,0.7C179.4,79.3,179.5,79.3,179.8,79.3z"/>
	<path class="st0" d="M186.7,78.5c0-0.2-0.1-0.3-0.2-0.5c-0.1-0.1-0.3-0.2-0.7-0.4l-1-0.4c-1-0.4-1.4-1-1.4-1.7c0-0.6,0.2-1,0.7-1.3
		c0.5-0.4,1-0.5,1.7-0.5c0.7,0,1.3,0.1,1.9,0.4v1c-0.7-0.2-1.2-0.3-1.8-0.3c-0.4,0-0.7,0.1-0.9,0.2s-0.3,0.3-0.3,0.6
		c0,0.2,0.1,0.3,0.2,0.5c0.1,0.1,0.4,0.2,0.7,0.4l1,0.4c0.5,0.2,0.9,0.4,1,0.7c0.2,0.3,0.3,0.6,0.3,1c0,0.7-0.2,1.1-0.7,1.4
		c-0.5,0.4-1,0.6-1.8,0.6c-0.4,0-0.8,0-1.1-0.1c-0.4-0.1-0.7-0.2-1-0.4v-1c0.8,0.3,1.5,0.4,2.1,0.4c0.4,0,0.8-0.1,1-0.2
		C186.6,78.9,186.7,78.7,186.7,78.5z"/>
	<path class="st0" d="M189.8,77.3c0,0.7,0.2,1,0.5,1.4c0.3,0.3,0.8,0.5,1.4,0.5c0.6,0,1.2-0.1,1.9-0.4v1c-0.3,0.2-0.6,0.3-1,0.4
		c-0.4,0.1-0.8,0.1-1.2,0.1c-1,0-1.8-0.3-2.4-0.9c-0.6-0.6-0.8-1.3-0.8-2.5c0-1,0.3-1.9,0.8-2.5c0.5-0.6,1.2-0.9,2.2-0.9
		c0.8,0,1.4,0.2,1.9,0.7c0.5,0.5,0.7,1,0.7,1.9c0,0.5,0,0.9-0.1,1.1L189.8,77.3L189.8,77.3z M191.2,74.8c-0.4,0-0.8,0.2-1,0.5
		c-0.3,0.3-0.4,0.7-0.5,1.2h2.7v-0.1c0-0.5-0.1-0.9-0.3-1.1C191.9,74.9,191.7,74.8,191.2,74.8z"/>
	<path class="st0" d="M197.4,78.5c0-0.2-0.1-0.3-0.2-0.5c-0.1-0.1-0.3-0.2-0.7-0.4l-1-0.4c-1-0.4-1.4-1-1.4-1.7c0-0.6,0.2-1,0.7-1.3
		c0.5-0.4,1-0.5,1.7-0.5c0.7,0,1.3,0.1,1.9,0.4v1c-0.7-0.2-1.2-0.3-1.8-0.3c-0.4,0-0.7,0.1-0.9,0.2c-0.2,0.1-0.3,0.3-0.3,0.6
		c0,0.2,0.1,0.3,0.2,0.5c0.1,0.1,0.4,0.2,0.7,0.4l1,0.4c0.5,0.2,0.9,0.4,1,0.7c0.2,0.3,0.3,0.6,0.3,1c0,0.7-0.2,1.1-0.7,1.4
		c-0.5,0.4-1,0.6-1.8,0.6c-0.4,0-0.8,0-1.1-0.1c-0.4-0.1-0.7-0.2-1-0.4v-1c0.8,0.3,1.5,0.4,2.1,0.4c0.4,0,0.8-0.1,1-0.2
		C197.3,78.9,197.4,78.7,197.4,78.5z"/>
	<path class="st0" d="M106.6,87.7h1.5v5.4c0,1-0.3,1.9-0.9,2.5s-1.4,0.9-2.6,0.9c-1.1,0-2-0.3-2.6-0.9s-0.9-1.4-0.9-2.5v-5.4h1.5
		v5.5c0,0.7,0.2,1.1,0.5,1.5c0.3,0.4,0.9,0.5,1.4,0.5c0.7,0,1.1-0.2,1.4-0.5c0.3-0.3,0.5-0.9,0.5-1.5V87.7z"/>
	<path class="st0" d="M112.9,94.7c0-0.2-0.1-0.3-0.2-0.5c-0.1-0.1-0.3-0.2-0.7-0.4l-1-0.4c-1-0.4-1.4-1-1.4-1.7c0-0.6,0.2-1,0.7-1.3
		c0.5-0.4,1-0.5,1.7-0.5c0.7,0,1.3,0.1,1.9,0.4v1c-0.7-0.2-1.2-0.3-1.8-0.3c-0.4,0-0.7,0.1-0.9,0.2c-0.2,0.1-0.3,0.3-0.3,0.6
		c0,0.2,0.1,0.3,0.2,0.5c0.1,0.1,0.4,0.2,0.7,0.4l1,0.4c0.5,0.2,0.9,0.4,1,0.7s0.3,0.6,0.3,1c0,0.7-0.2,1.1-0.7,1.4
		c-0.5,0.4-1,0.6-1.8,0.6c-0.4,0-0.8,0-1.1-0.1c-0.4-0.1-0.7-0.2-1-0.4v-1c0.8,0.3,1.5,0.4,2.1,0.4c0.4,0,0.8-0.1,1-0.2
		C112.8,95.1,112.9,94.9,112.9,94.7z"/>
	<path class="st0" d="M116.6,93.5c0,0.7,0.2,1,0.5,1.4c0.3,0.3,0.8,0.5,1.4,0.5c0.6,0,1.2-0.1,1.9-0.4v1c-0.3,0.2-0.6,0.3-1,0.4
		s-0.8,0.1-1.2,0.1c-1,0-1.8-0.3-2.4-0.9c-0.6-0.6-0.8-1.3-0.8-2.5c0-1,0.3-1.9,0.8-2.5s1.2-0.9,2.2-0.9c0.8,0,1.4,0.2,1.9,0.7
		s0.7,1,0.7,1.9c0,0.5,0,0.9-0.1,1.1L116.6,93.5L116.6,93.5z M118.1,91c-0.4,0-0.8,0.2-1,0.5c-0.3,0.3-0.4,0.7-0.5,1.2h2.7v-0.1
		c0-0.5-0.1-0.9-0.3-1.1C118.7,91.1,118.5,91,118.1,91z"/>
	<path class="st0" d="M122.1,96.3V90h1.2l0.2,1c0.3-0.4,0.7-0.7,1-0.8c0.3-0.2,0.6-0.2,1-0.2c0.2,0,0.3,0,0.5,0v1.3
		c-0.2,0-0.5-0.1-0.7-0.1c-0.6,0-1.1,0.2-1.6,0.5v4.6C123.6,96.3,122.1,96.3,122.1,96.3z"/>
	<path class="st0" d="M129.7,94.7c0-0.2-0.1-0.3-0.2-0.5c-0.1-0.1-0.3-0.2-0.7-0.4l-1-0.4c-1-0.4-1.4-1-1.4-1.7c0-0.6,0.2-1,0.7-1.3
		c0.5-0.4,1-0.5,1.7-0.5c0.7,0,1.3,0.1,1.9,0.4v1c-0.7-0.2-1.2-0.3-1.8-0.3c-0.4,0-0.7,0.1-0.9,0.2c-0.2,0.1-0.3,0.3-0.3,0.6
		c0,0.2,0.1,0.3,0.2,0.5c0.1,0.1,0.4,0.2,0.7,0.4l1,0.4c0.5,0.2,0.9,0.4,1,0.7c0.2,0.3,0.3,0.6,0.3,1c0,0.7-0.2,1.1-0.7,1.4
		c-0.5,0.4-1,0.6-1.8,0.6c-0.4,0-0.8,0-1.1-0.1c-0.4-0.1-0.7-0.2-1-0.4v-1c0.8,0.3,1.5,0.4,2.1,0.4c0.4,0,0.8-0.1,1-0.2
		C129.6,95.1,129.7,94.9,129.7,94.7z"/>
	<path class="st0" d="M135.7,96.3v-8.6h1.5v8.6H135.7z"/>
	<path class="st0" d="M143.3,96.3v-4.2c0-0.4-0.1-0.7-0.3-0.9c-0.2-0.2-0.5-0.3-0.8-0.3c-0.6,0-1.1,0.2-1.7,0.6v4.8h-1.4V90h1.2
		l0.2,0.7c0.8-0.6,1.6-0.9,2.4-0.9c0.6,0,1,0.2,1.3,0.5c0.3,0.3,0.5,0.8,0.5,1.3v4.7H143.3z"/>
	<path class="st0" d="M150.2,96.2c-0.5,0.2-0.9,0.2-1.4,0.2c-0.7,0-1.1-0.2-1.4-0.5c-0.3-0.3-0.5-0.8-0.5-1.4v-3.4h-1v-1l1.1-0.2
		l0.2-1.8h1.1V90h1.8v1.1h-1.8v3.3c0,0.3,0.1,0.5,0.2,0.6c0.1,0.1,0.4,0.2,0.7,0.2c0.4,0,0.7,0,1-0.1L150.2,96.2L150.2,96.2z"/>
	<path class="st0" d="M152.5,93.5c0,0.7,0.2,1,0.5,1.4c0.3,0.3,0.8,0.5,1.4,0.5c0.6,0,1.2-0.1,1.9-0.4v1c-0.3,0.2-0.6,0.3-1,0.4
		s-0.8,0.1-1.2,0.1c-1,0-1.8-0.3-2.4-0.9c-0.6-0.6-0.8-1.3-0.8-2.5c0-1,0.3-1.9,0.8-2.5c0.5-0.6,1.2-0.9,2.2-0.9
		c0.8,0,1.4,0.2,1.9,0.7c0.5,0.5,0.7,1,0.7,1.9c0,0.5,0,0.9-0.1,1.1L152.5,93.5L152.5,93.5z M154,91c-0.4,0-0.8,0.2-1,0.5
		c-0.3,0.3-0.4,0.7-0.5,1.2h2.7v-0.1c0-0.5-0.1-0.9-0.3-1.1C154.6,91.1,154.4,91,154,91z"/>
	<path class="st0" d="M157.9,96.3V90h1.2l0.2,1c0.3-0.4,0.7-0.7,1-0.8c0.3-0.2,0.6-0.2,1-0.2c0.2,0,0.3,0,0.5,0v1.3
		c-0.2,0-0.5-0.1-0.7-0.1c-0.6,0-1.1,0.2-1.6,0.5v4.6C159.4,96.3,157.9,96.3,157.9,96.3z"/>
	<path class="st0" d="M166.4,96.3l-0.1-0.6c-0.3,0.3-0.6,0.5-1,0.6c-0.4,0.1-0.7,0.2-1,0.2c-0.6,0-1-0.2-1.4-0.5
		c-0.4-0.4-0.6-0.8-0.6-1.3s0.2-1.1,0.7-1.4c0.5-0.4,1-0.6,1.8-0.6c0.5,0,1,0.1,1.4,0.2v-0.8c0-0.4-0.1-0.7-0.3-0.9
		c-0.2-0.2-0.5-0.3-1-0.3c-0.7,0-1.4,0.1-2.2,0.4v-1c0.3-0.2,0.7-0.3,1.1-0.4c0.5-0.1,0.9-0.1,1.3-0.1c0.9,0,1.4,0.2,1.8,0.5
		c0.4,0.3,0.6,0.9,0.6,1.5v4.5L166.4,96.3L166.4,96.3z M164.7,95.5c0.2,0,0.5-0.1,0.8-0.2c0.3-0.1,0.5-0.3,0.8-0.5v-1.1
		c-0.4-0.1-0.8-0.1-1.1-0.1c-0.9,0-1.2,0.4-1.2,1c0,0.3,0.1,0.5,0.3,0.7C164.4,95.5,164.5,95.5,164.7,95.5z"/>
	<path class="st0" d="M173.7,96.1c-0.5,0.3-1,0.4-1.7,0.4c-1,0-1.7-0.3-2.2-0.9c-0.5-0.6-0.8-1.3-0.8-2.4s0.3-1.9,0.8-2.5
		c0.6-0.6,1.3-0.9,2.3-0.9c0.6,0,1.1,0.1,1.6,0.4v1c-0.6-0.2-1-0.2-1.4-0.2c-0.6,0-1,0.2-1.3,0.5c-0.3,0.4-0.5,0.9-0.5,1.5v0.2
		c0,0.7,0.2,1.2,0.5,1.5c0.3,0.3,0.8,0.5,1.3,0.5c0.5,0,1-0.1,1.4-0.3L173.7,96.1L173.7,96.1z"/>
	<path class="st0" d="M178.8,96.2c-0.5,0.2-0.9,0.2-1.4,0.2c-0.7,0-1.1-0.2-1.4-0.5c-0.3-0.3-0.5-0.8-0.5-1.4v-3.4h-1v-1l1.1-0.2
		l0.2-1.8h1.1V90h1.8v1.1h-1.8v3.3c0,0.3,0.1,0.5,0.2,0.6s0.4,0.2,0.7,0.2c0.4,0,0.7,0,1-0.1L178.8,96.2L178.8,96.2z"/>
</g>
<g>
	<polygon class="st0" points="85.7,0 84.5,0 1.2,0 0,0 0,1.4 0,127.2 0,128.6 1.2,128.6 84.5,128.6 85.7,128.6 85.7,127.2 85.7,1.4 
		85.7,0 	"/>
	<g>
		<g>
			<path class="st1" d="M84.5,1.4v125.8H1.2V1.4H84.5"/>
		</g>
		<rect x="5.4" y="5.9" class="st0" width="74.2" height="20.9"/>
		<rect x="5.4" y="31.3" class="st0" width="74.3" height="76.7"/>
		<g>
			<polygon class="st0" points="5.4,122.6 5.4,112.5 20.3,112.5 20.3,114.8 11.4,114.8 11.4,116.3 19,116.3 19,118.7 11.4,118.7 
				11.4,120.3 20.7,120.3 20.7,122.6 			"/>
			<path class="st0" d="M33.3,115.4c-0.1-0.3-0.4-0.6-0.9-0.7c-0.4-0.1-1-0.2-1.5-0.2c-1.3,0-1.9,0.2-1.9,0.6
				c0,1.5,10.5,0.6,10.5,4.3c0,2.4-3.5,3.5-8.6,3.5c-4.8,0-8-1.6-8.1-3.4h5.7c0.1,0.4,0.5,0.6,1,0.8c0.5,0.2,1.1,0.3,1.7,0.3
				c1.5,0,2.5-0.3,2.5-0.7c0-1.5-10.5-0.5-10.5-4.4c0-2.2,3.4-3.2,7.9-3.2c5.1,0,7.4,1.4,7.8,3.2H33.3z"/>
			<path class="st0" d="M48.5,116.9h2.4c1.9,0,2.8-0.3,2.8-1c0-0.7-1-1.1-2.4-1.1h-2.8V116.9z M48.5,119.1v3.5h-6v-10.2h8.6
				c6.1,0,8.1,0.9,8.1,2.9c0,1.2-0.9,2.2-3.1,2.5c1.9,0.4,3.1,0.6,3.1,2.7c0,1.3-0.1,1.8,0.6,1.8v0.3h-6.1c-0.1-0.2-0.3-0.9-0.3-1.8
				c0-1.3-0.4-1.8-3.2-1.8H48.5z"/>
			<path class="st0" d="M68.9,114.8v1.7h2.5c1.2,0,2.1-0.3,2.1-0.9c0-0.8-1.2-0.8-2.4-0.8H68.9z M68.9,118.4v1.9h2.6
				c1.5,0,2.6-0.2,2.6-0.9c0-0.9-1.4-0.9-3.3-0.9H68.9z M62.9,122.6v-10.2h8.7c4.1,0,7.4,0.6,7.4,2.6c0,1.1-1.2,1.8-2.4,2.2
				c2,0.3,3,1.2,3,2.3c0,2.3-3.1,3.1-7.9,3.1H62.9z"/>
		</g>
		<polygon class="st1" points="11.6,49.9 69.1,35.5 73.5,50.9 55,55.5 67.4,98.5 46.9,103.6 34.5,60.6 16,65.2 		"/>
		<g>
			<polygon class="st1" points="62.2,10.4 67.1,10.4 72.8,16.8 72.6,14.1 72.6,10.4 77.6,10.4 77.6,22.2 72.7,22.2 67,15.7 
				67.1,18.5 67.2,22.2 62.2,22.2 			"/>
			<polygon class="st1" points="44.7,10.4 57.6,10.4 57.6,13.1 49.9,13.1 49.9,14.8 56.4,14.8 56.4,17.6 49.9,17.6 49.9,19.4 
				57.9,19.4 57.9,22.2 44.7,22.2 			"/>
			<polygon class="st1" points="26.5,10.4 39.4,10.4 39.4,13.1 31.7,13.1 31.7,14.8 38.2,14.8 38.2,17.6 31.7,17.6 31.7,19.4 
				39.7,19.4 39.7,22.2 26.5,22.2 			"/>
			<polygon class="st1" points="7.5,10.4 22,10.4 22,13.5 17.4,13.5 17.4,22.2 12.2,22.2 12.2,13.5 7.5,13.5 			"/>
		</g>
	</g>
</g>
</svg>
